<svg viewBox="0 0 221 221" fill="none" xmlns="http://www.w3.org/2000/svg">
<path d="M100.97 147.026L97.0442 158.022L89.6804 155.392L93.4974 144.701C86.6836 142.23 80.8832 138.408 76.0964 133.233L81.1073 119.198C82.4907 121.481 84.8746 123.989 88.2591 126.721C91.6436 129.453 94.8127 131.46 97.7666 132.743L104.351 114.3C97.5324 108.552 93.286 103.456 91.6123 99.0114C89.9843 94.5455 90.0507 89.8466 91.8115 84.9148C93.7049 79.6114 97.1811 75.7681 102.24 73.3848C107.311 70.9678 113.032 70.5537 119.402 72.1426L122.767 62.718L130.131 65.3471L126.838 74.5689C133.813 77.4397 138.699 80.479 141.496 83.6867L136.612 97.3674C132.929 92.8155 128.261 89.1682 122.605 86.4256L115.749 105.629C122.16 110.927 126.348 115.869 128.312 120.455C130.289 125.007 130.408 129.715 128.672 134.579C126.67 140.187 123.272 144.077 118.477 146.25C113.695 148.389 107.859 148.648 100.97 147.026ZM109.435 100.061L115.169 83.9992C110.194 83.175 106.983 84.7897 105.535 88.8433C104.293 92.3226 105.593 96.062 109.435 100.061ZM110.684 119.817L105.203 135.17C110.276 136.143 113.543 134.586 115.002 130.499C116.184 127.188 114.745 123.628 110.684 119.817Z" fill="#120439"/>
<path d="M197.214 110.874C197.214 158.86 158.313 197.761 110.326 197.761C62.3399 197.761 23.439 158.86 23.439 110.874C23.439 62.887 62.3399 23.9862 110.326 23.9862C158.313 23.9862 197.214 62.887 197.214 110.874Z" stroke="#120439" stroke-width="9"/>
<path d="M209.929 110.36C209.929 165.085 165.565 209.449 110.84 209.449C56.1149 209.449 11.7515 165.085 11.7515 110.36C11.7515 55.6351 56.1149 11.2716 110.84 11.2716C151.114 11.2716 185.776 35.2988 201.274 69.8006" stroke="#120439" stroke-width="2"/>
<path d="M108.12 3.07972C167.653 1.8614 216.902 49.1348 218.12 108.668C219.339 168.201 172.065 217.45 112.532 218.668C52.9993 219.886 3.75064 172.613 2.53232 113.08C1.63572 69.2674 27.0021 31.0251 64.1901 13.3975" stroke="#120439" stroke-width="2"/>
<path d="M75.4141 51.8312C83.3783 47.6996 88.0581 46.0967 96.9774 45.1569M76.4409 54.9117C84.4719 50.6653 89.1413 48.9894 98.0042 48.2373" stroke="#120439"/>
<path d="M160.273 158.375C166.59 150.44 168.729 146.045 170.602 138.304M163.192 159.799C168.77 152.881 171.691 148.879 173.52 139.728" stroke="#120439"/>
</svg>
