<svg viewBox="0 0 41 58" fill="none" xmlns="http://www.w3.org/2000/svg">
<path d="M41 11.3984L37.2648 53.335L20.4749 58L3.73125 53.3416L0 11.3984H41Z" fill="#264DE4"/>
<path d="M34.067 50.6646L37.259 14.8278H20.5V54.4342L34.067 50.6646Z" fill="#2965F1"/>
<path d="M8.55383 30.3839L9.01387 35.528H20.5V30.3839H8.55383Z" fill="#EBEBEB"/>
<path d="M20.5 19.972H20.4823H7.62946L8.09604 25.1163H20.5V19.972Z" fill="#EBEBEB"/>
<path d="M20.5 49.096V43.7439L20.4775 43.7499L14.7611 42.2029L14.3957 38.1002H11.6179H9.24316L9.96226 46.1773L20.4764 49.1026L20.5 49.096Z" fill="#EBEBEB"/>
<path d="M9.64905 0H15.8657V2.60547H12.2487V5.21094H15.8657V7.81641H9.64905V0Z" fill="black"/>
<path d="M17.1091 0H23.3257V2.26562H19.7088V2.71875H23.3257V7.92969H17.1091V5.55078H20.726V5.09766H17.1091V0Z" fill="black"/>
<path d="M24.5691 0H30.7858V2.26562H27.1688V2.71875H30.7858V7.92969H24.5691V5.55078H28.1861V5.09766H24.5691V0Z" fill="black"/>
<path d="M26.8027 35.5281L26.2069 42.1996L20.4822 43.7482V49.1001L31.0047 46.1773L31.0819 45.3082L32.288 31.7653L32.4133 30.384L33.3399 19.972H20.4822V25.1163H27.7148L27.2478 30.384H20.4822V35.5281H26.8027Z" fill="white"/>
</svg>
