<svg viewBox="0 0 51 58" fill="none" xmlns="http://www.w3.org/2000/svg">
<path d="M39.6214 12.1665C36.1189 13.3641 34.4324 15.5124 33.2835 18.858C32.9869 19.7516 32.2456 20.7401 31.4117 21.4054L34.2841 24.5611L25.1663 18.0217L0 0C0 0 1.81613 12.0904 2.44623 16.5388C2.89099 19.6755 3.6508 21.0823 6.05996 22.5081L7.0236 23.0404L11.1748 25.2835L8.71002 23.9718L20.0886 30.3402L20.0146 30.5114L7.76489 24.6942C8.41352 26.9754 9.67369 31.3668 10.2111 33.3058C10.7856 35.3968 11.4342 36.1574 13.4171 36.8987L17.0679 38.2675L19.3288 37.355L16.4564 39.313L2.09411 58C11.6381 48.9131 19.718 45.6814 25.6297 43.039C33.1722 39.6931 37.7125 37.5451 40.6776 29.827C42.7903 24.409 44.4396 17.4703 46.5337 14.7898L51 8.93477C51 8.93477 41.7525 11.4441 39.6214 12.1665Z" fill="#3F00A5"/>
</svg>
