<svg viewBox="0 0 42 58" fill="none" xmlns="http://www.w3.org/2000/svg">
<path d="M3.82892 0H6.43438V2.58281H8.83595V0H11.4414V7.8164H8.83595V5.21093H6.45704V7.8164H3.82892V0ZM14.8852 2.60547H12.5856V0H19.8016V2.60547H17.4906V7.8164H14.8852V2.60547ZM20.9457 0H23.6758L25.3523 2.75273L27.0289 0H29.759V7.8164H27.1535V3.94219L25.3297 6.75156L23.5059 3.94219V7.8164H20.9457V0ZM31.0504 0H33.6559V5.23359H37.3488V7.8164H31.0504" fill="black"/>
<path d="M3.73828 53.3555L0 11.3961H41.0984L37.3601 53.3328L20.5152 58" fill="#E44D26"/>
<path d="M20.5492 54.4316V14.8398H37.3488L34.1429 50.6367" fill="#F16529"/>
<path d="M7.63516 19.9714H20.5492V25.1144H13.2766L13.7523 30.382H20.5492V35.5136H9.03985L7.63516 19.9714ZM9.26641 38.0964H14.432L14.7945 42.2085L20.5492 43.7492V49.1187L9.99141 46.1734" fill="#EBEBEB"/>
<path d="M33.418 19.9714H20.5266V25.1144H32.9422L33.418 19.9714ZM32.4777 30.382H20.5266V35.5249H26.8703L26.2699 42.2085L20.5266 43.7492V49.096L31.0617 46.1734" fill="white"/>
</svg>
