<svg viewBox="0 0 58 58" fill="none" xmlns="http://www.w3.org/2000/svg">
<path d="M58 0H0V58H58V0Z" fill="#F7DF1E"/>
<path d="M38.9613 45.3128C40.1295 47.2203 41.6495 48.6225 44.3378 48.6225C46.5961 48.6225 48.0387 47.4938 48.0387 45.9342C48.0387 44.0653 46.5565 43.4034 44.0708 42.3161L42.7082 41.7315C38.7753 40.056 36.1625 37.9569 36.1625 33.5194C36.1625 29.4318 39.277 26.3201 44.1444 26.3201C47.6097 26.3201 50.1009 27.5261 51.8962 30.6839L47.6521 33.409C46.7176 31.7334 45.7095 31.0733 44.1444 31.0733C42.5481 31.0733 41.5363 32.086 41.5363 33.409C41.5363 35.044 42.549 35.7059 44.8874 36.7186L46.2499 37.3023C50.8807 39.2881 53.4953 41.3126 53.4953 45.8642C53.4953 50.7712 49.6406 53.4595 44.4639 53.4595C39.4022 53.4595 36.1321 51.0474 34.5321 47.886L38.9613 45.3128ZM19.708 45.7851C20.5642 47.3041 21.3431 48.5884 23.2156 48.5884C25.0063 48.5884 26.1359 47.8878 26.1359 45.1636V26.6312H31.5861V45.2373C31.5861 50.8808 28.2773 53.4494 23.4476 53.4494C19.0838 53.4494 16.5567 51.191 15.2715 48.471L19.708 45.7851Z" fill="black"/>
</svg>
