<svg viewBox="0 0 96 96" fill="none" xmlns="http://www.w3.org/2000/svg">
<path d="M18.88 10.6667C19.2 15.4133 20 20.0533 21.28 24.48L14.88 30.88C12.6933 24.48 11.3067 17.7067 10.8267 10.6667H18.88ZM71.4667 74.7733C76 76.0533 80.64 76.8533 85.3333 77.1733V85.12C78.2933 84.64 71.52 83.2533 65.0667 81.12L71.4667 74.7733ZM24 0H5.33333C2.4 0 0 2.4 0 5.33333C0 55.4133 40.5867 96 90.6667 96C93.6 96 96 93.6 96 90.6667V72.0533C96 69.12 93.6 66.72 90.6667 66.72C84.0533 66.72 77.6 65.6533 71.6267 63.68C71.0933 63.4667 70.5067 63.4133 69.9733 63.4133C68.5867 63.4133 67.2533 63.9467 66.1867 64.96L54.4533 76.6933C39.36 68.96 26.9867 56.64 19.3067 41.5467L31.04 29.8133C32.5333 28.32 32.96 26.24 32.3733 24.3733C30.4 18.4 29.3333 12 29.3333 5.33333C29.3333 2.4 26.9333 0 24 0Z" fill="#EDEDF6"/>
</svg>
