<svg width="65" height="58" viewBox="0 0 65 58" fill="none" xmlns="http://www.w3.org/2000/svg">
<path d="M32.5 34.796C35.6997 34.796 38.2935 32.2011 38.2935 29C38.2935 25.799 35.6997 23.204 32.5 23.204C29.3004 23.204 26.7066 25.799 26.7066 29C26.7066 32.2011 29.3004 34.796 32.5 34.796Z" fill="#61DAFB"/>
<path fill-rule="evenodd" clip-rule="evenodd" d="M49.4414 6.78941C49.0473 4.94637 48.2893 3.84039 47.3369 3.2903C46.3846 2.7402 45.0482 2.63644 43.2557 3.21656C41.4635 3.79662 39.3717 5.01735 37.1135 6.85345C32.6053 10.5191 27.673 16.4419 23.4444 23.7694C19.2157 31.0969 16.5548 38.3316 15.6357 44.0703C15.1754 46.9449 15.1646 49.3676 15.5586 51.2105C15.9526 53.0535 16.7106 54.1595 17.663 54.7096C18.6154 55.2597 19.9518 55.3634 21.7442 54.7833C23.5365 54.2032 25.6283 52.9825 27.8865 51.1464C32.3947 47.4808 37.3269 41.558 41.5556 34.2305C45.7843 26.903 48.4452 19.6683 49.3642 13.9295C49.8246 11.055 49.8354 8.63224 49.4414 6.78941ZM52.1547 14.3768C51.1685 20.5351 48.3588 28.0965 44.0031 35.6442C39.6473 43.1918 34.5067 49.4069 29.6689 53.3405C27.254 55.304 24.8546 56.7482 22.6141 57.4734C20.3739 58.1984 18.1362 58.2476 16.25 57.1581C14.3638 56.0686 13.2875 54.1053 12.795 51.8018C12.3025 49.4981 12.353 46.6971 12.8452 43.6231C13.8314 37.4648 16.6412 29.9034 20.9969 22.3557C25.3527 14.808 30.4933 8.59299 35.3311 4.65939C37.7459 2.69587 40.1454 1.25162 42.3859 0.526498C44.6261 -0.198561 46.8638 -0.247706 48.75 0.84176C50.6362 1.93123 51.7125 3.89454 52.205 6.19804C52.6975 8.50175 52.647 11.3028 52.1547 14.3768Z" fill="#61DAFB"/>
<path fill-rule="evenodd" clip-rule="evenodd" d="M17.663 3.29043C18.6154 2.74034 19.9518 2.63658 21.7442 3.2167C23.5365 3.79676 25.6283 5.01749 27.8865 6.85359C30.6141 9.07145 33.497 12.1156 36.2853 15.7972C35.0429 15.7406 33.7796 15.7115 32.5 15.7115C26.6358 15.7115 21.1165 16.3216 16.3586 17.399C16.054 16.1938 15.8126 15.034 15.6357 13.9297C15.1754 11.0551 15.1646 8.63238 15.5586 6.78955C15.9526 4.94651 16.7106 3.84053 17.663 3.29043ZM17.1314 20.1231C16.8401 19.1932 16.5823 18.2839 16.3586 17.399C15.4145 17.6128 14.5003 17.845 13.6194 18.0945C13.2946 16.8097 13.0358 15.5671 12.8452 14.3769C12.353 11.3029 12.3025 8.50188 12.795 6.19818C13.2875 3.89468 14.3638 1.93136 16.25 0.841897C18.1362 -0.247569 20.3739 -0.198424 22.6141 0.526636C24.8546 1.25176 27.254 2.696 29.6689 4.65952C33.0801 7.43316 36.6419 11.3411 39.9729 16.0507C45.7153 16.5819 50.8792 17.7139 54.9858 19.2826C57.893 20.393 60.3429 21.7498 62.0908 23.3284C63.8386 24.9069 65 26.821 65 29C65 31.1789 63.8386 33.0931 62.0908 34.6715C60.3429 36.2501 57.893 37.6069 54.9858 38.7174C53.8602 39.1473 52.6552 39.5445 51.3805 39.9055C51.7054 41.1903 51.9641 42.433 52.1547 43.6232C52.647 46.6972 52.6975 49.4983 52.205 51.802C51.7125 54.1055 50.6362 56.0688 48.75 57.1582C46.8638 58.2477 44.6261 58.1986 42.3859 57.4735C40.1454 56.7484 37.7459 55.3041 35.3311 53.3406C31.9198 50.5669 28.358 46.6589 25.0269 41.9492C19.2846 41.418 14.1208 40.286 10.0142 38.7174C7.10703 37.6069 4.65709 36.2501 2.90916 34.6715C1.16139 33.0931 0 31.1789 0 29C0 26.821 1.16139 24.9069 2.90916 23.3284C4.65709 21.7498 7.10703 20.393 10.0142 19.2826C11.1398 18.8526 12.3448 18.4554 13.6194 18.0945C13.8439 18.9825 14.1 19.8906 14.387 20.8155C15.2648 20.5669 16.1808 20.3355 17.1314 20.1231ZM17.1314 20.1231C18.5055 24.5077 20.627 29.3486 23.4444 34.2306C24.4573 35.9859 25.5106 37.6605 26.5888 39.2428C28.4977 39.3858 30.474 39.4611 32.5 39.4611C38.1348 39.4611 43.3859 38.8787 47.8685 37.8769C46.4944 33.4923 44.373 28.6515 41.5556 23.7695C40.5426 22.0142 39.4892 20.3395 38.411 18.7571C36.5022 18.6141 34.5259 18.5389 32.5 18.5389C26.8652 18.5389 21.614 19.1212 17.1314 20.1231ZM22.9637 38.881C18.3825 38.306 14.306 37.3304 11.0222 36.076C8.30375 35.0376 6.20111 33.8356 4.80286 32.5728C3.40446 31.3099 2.82609 30.1002 2.82609 29C2.82609 27.8998 3.40446 26.69 4.80286 25.4271C6.20111 24.1643 8.30375 22.9623 11.0222 21.9239C12.0667 21.5249 13.1914 21.1542 14.387 20.8155C15.8333 25.4765 18.0648 30.5635 20.9969 35.6443C21.6367 36.753 22.2935 37.8329 22.9637 38.881ZM28.7145 42.2027C31.5029 45.8844 34.3858 48.9286 37.1135 51.1465C39.3717 52.9827 41.4635 54.2034 43.2557 54.7834C45.0482 55.3636 46.3846 55.2598 47.3369 54.7097C48.2893 54.1596 49.0473 53.0536 49.4414 51.2106C49.8354 49.3678 49.8246 46.945 49.3642 44.0705C49.1874 42.966 48.946 41.8062 48.6413 40.6009C43.8834 41.6783 38.3641 42.2884 32.5 42.2884C31.2203 42.2884 29.957 42.2593 28.7145 42.2027ZM50.6129 37.1844C51.8086 36.8458 52.9333 36.475 53.9778 36.076C56.6963 35.0376 58.7989 33.8356 60.1971 32.5728C61.5955 31.3099 62.1739 30.1002 62.1739 29C62.1739 27.8998 61.5955 26.69 60.1971 25.4271C58.7989 24.1643 56.6963 22.9623 53.9778 21.9239C50.694 20.6695 46.6173 19.6939 42.0361 19.1188C42.7064 20.1671 43.3632 21.2471 44.0031 22.3559C46.9351 27.4366 49.1666 32.5235 50.6129 37.1844Z" fill="#61DAFB"/>
<path d="M17.1314 20.1231C16.8401 19.1932 16.5823 18.2839 16.3586 17.399C15.4145 17.6128 14.5003 17.845 13.6194 18.0945C13.8439 18.9825 14.1 19.8906 14.387 20.8155C15.2648 20.5669 16.1808 20.3355 17.1314 20.1231Z" fill="#61DAFB"/>
</svg>
