<svg viewBox="0 0 77 58" fill="none" xmlns="http://www.w3.org/2000/svg">
<path d="M66.303 33.3419C63.6167 33.3561 61.2821 34.0059 59.3271 34.9665C58.6098 33.5397 57.8926 32.2683 57.766 31.336C57.6253 30.2483 57.4566 29.5843 57.6253 28.2847C57.7941 26.9851 58.5536 25.1345 58.5395 24.9933C58.5254 24.852 58.3707 24.1881 56.8237 24.1739C55.2766 24.1598 53.9405 24.4706 53.7858 24.8802C53.6311 25.2899 53.3357 26.2222 53.1388 27.1828C52.8716 28.5955 50.0446 33.6386 48.4272 36.2802C47.9069 35.249 47.4568 34.3449 47.3584 33.6245C47.2177 32.5367 47.0489 31.8728 47.2177 30.5732C47.3865 29.2735 48.146 27.423 48.1319 27.2817C48.1178 27.1405 47.9631 26.4765 46.416 26.4624C44.869 26.4483 43.5328 26.7591 43.3781 27.1687C43.2234 27.5784 43.0547 28.539 42.7312 29.4713C42.4077 30.4037 38.6525 38.823 37.668 40.9984C37.1617 42.1144 36.7257 43.0044 36.4163 43.6118C36.4163 43.6118 36.4022 43.6542 36.36 43.7248C36.0928 44.2475 35.9381 44.53 35.9381 44.53C35.9381 44.53 35.9381 44.53 35.9381 44.5441C35.7271 44.9255 35.5021 45.2787 35.3896 45.2787C35.3052 45.2787 35.1505 44.2616 35.4177 42.8772C35.9803 39.9531 37.3164 35.4044 37.3023 35.249C37.3023 35.1642 37.5555 34.3732 36.4304 33.9635C35.3333 33.5538 34.9395 34.2319 34.8411 34.2319C34.7426 34.2319 34.6723 34.472 34.6723 34.472C34.6723 34.472 35.8959 29.3583 32.3376 29.3583C30.1155 29.3583 27.0494 31.8022 25.5305 34.0059C24.5741 34.5285 22.5348 35.6445 20.3548 36.8453C19.525 37.3114 18.6671 37.7776 17.8654 38.2155C17.8092 38.159 17.7529 38.0884 17.6966 38.0319C13.3929 33.4126 5.43253 30.1494 5.77007 23.9479C5.89665 21.6877 6.67019 15.7546 21.058 8.55017C32.9002 2.68773 42.3233 4.31227 43.9548 7.91449C46.2895 13.0565 38.9057 22.6059 26.6697 23.9903C22.0003 24.513 19.5531 22.7048 18.9343 22.0267C18.2873 21.3204 18.1889 21.278 17.9498 21.4193C17.556 21.6312 17.8092 22.2669 17.9498 22.6342C18.3155 23.5947 19.8204 25.2899 22.366 26.1234C24.6163 26.8579 30.0873 27.2676 36.7116 24.6966C44.1236 21.8148 49.9181 13.8052 48.2163 7.09516C46.5145 0.286253 35.263 -1.95984 24.6163 1.84015C18.2873 4.10037 11.4239 7.66021 6.48735 12.2937C0.622518 17.8029 -0.305728 22.5918 0.0740093 24.5977C1.43825 31.7174 11.213 36.3508 15.1229 39.7836C14.926 39.8966 14.7431 39.9954 14.5884 40.0802C12.6335 41.0549 5.17937 44.9679 3.32287 49.1069C1.21322 53.7969 3.66042 57.159 5.27782 57.611C10.2988 59.0095 15.4604 56.495 18.2311 52.3419C21.0018 48.1887 20.6642 42.7925 19.3844 40.3204C19.3703 40.2921 19.3562 40.2638 19.3281 40.2356C19.8344 39.9389 20.3548 39.6282 20.8611 39.3315C21.8597 38.7382 22.8442 38.1873 23.688 37.7352C23.2099 39.049 22.8583 40.617 22.6895 42.8772C22.4785 45.533 23.5615 48.9798 24.982 50.3359C25.6149 50.9292 26.3603 50.9434 26.8385 50.9434C28.4981 50.9434 29.2435 49.559 30.0733 47.9203C31.0859 45.9144 32.0001 43.5835 32.0001 43.5835C32.0001 43.5835 30.8609 49.8839 33.955 49.8839C35.0802 49.8839 36.2194 48.4148 36.7257 47.6661C36.7257 47.6802 36.7257 47.6802 36.7257 47.6802C36.7257 47.6802 36.7538 47.6378 36.8101 47.5389C36.9226 47.3553 36.9929 47.2423 36.9929 47.2423C36.9929 47.2423 36.9929 47.2281 36.9929 47.214C37.443 46.4229 38.4556 44.6289 39.9605 41.6482C41.9014 37.8059 43.7719 33.0029 43.7719 33.0029C43.7719 33.0029 43.9407 34.1754 44.5174 36.1248C44.8549 37.2691 45.5581 38.5263 46.1207 39.7412C45.6706 40.3769 45.3893 40.73 45.3893 40.73C45.3893 40.73 45.3893 40.73 45.4034 40.7441C45.0377 41.2244 44.6439 41.7471 44.2079 42.2557C42.6749 44.0921 40.8466 46.1969 40.5934 46.8044C40.298 47.5248 40.3684 48.0475 40.9309 48.4713C41.3388 48.782 42.0702 48.8244 42.8156 48.782C44.1939 48.6832 45.1643 48.3441 45.6425 48.1322C46.3879 47.8638 47.2599 47.4542 48.0756 46.8467C49.5805 45.7308 50.4947 44.1345 50.4103 42.0296C50.3681 40.8713 49.9884 39.7129 49.5243 38.6252C49.6649 38.4274 49.7915 38.2297 49.9321 38.0319C52.309 34.5427 54.1514 30.7144 54.1514 30.7144C54.1514 30.7144 54.3202 31.8869 54.8968 33.8364C55.1781 34.8252 55.7548 35.8988 56.2611 36.9442C54.0249 38.7665 52.6465 40.8854 52.1543 42.2698C51.2682 44.8408 51.9574 45.9991 53.2654 46.2676C53.8561 46.3947 54.6999 46.1122 55.3188 45.8438C56.1064 45.5895 57.0346 45.1516 57.9207 44.5018C59.4256 43.3858 60.8742 41.8319 60.7898 39.727C60.7476 38.7665 60.4945 37.82 60.1428 36.9018C62.0415 36.1107 64.4887 35.6728 67.611 36.0401C74.3056 36.8311 75.6277 41.0267 75.3745 42.7925C75.1214 44.5583 73.7149 45.5189 73.2508 45.8155C72.7867 46.1122 72.632 46.211 72.6742 46.4229C72.7304 46.7337 72.9555 46.7196 73.3493 46.6631C73.8978 46.5642 76.8654 45.2363 76.9919 41.9873C77.2029 37.8341 73.2649 33.2996 66.303 33.3419ZM14.6587 50.8304C12.4366 53.2601 9.34242 54.1783 8.0063 53.4014C6.57174 52.5679 7.13431 48.9798 9.8628 46.4088C11.5224 44.8408 13.6602 43.3858 15.0807 42.4958C15.4042 42.298 15.8823 42.0155 16.459 41.6624C16.5574 41.6059 16.6137 41.5776 16.6137 41.5776C16.7262 41.507 16.8387 41.4363 16.9512 41.3657C17.9498 45.0386 16.9934 48.2735 14.6587 50.8304ZM30.8327 39.7836C30.0592 41.6765 28.4418 46.5218 27.4573 46.2534C26.6134 46.0274 26.0931 42.3545 27.2885 38.7241C27.8933 36.9018 29.1731 34.7263 29.9186 33.8787C31.1281 32.5226 32.4642 32.0706 32.7877 32.6215C33.1956 33.3419 31.3109 38.5969 30.8327 39.7836ZM44.1798 46.1969C43.8563 46.3664 43.5469 46.4794 43.4063 46.3947C43.3078 46.3382 43.5469 46.1122 43.5469 46.1122C43.5469 46.1122 45.2206 44.304 45.8816 43.4847C46.2613 43.0044 46.7114 42.4393 47.1896 41.8036C47.1896 41.8601 47.1896 41.9308 47.1896 41.9873C47.1896 44.1486 45.1081 45.6036 44.1798 46.1969ZM54.4749 43.8378C54.2358 43.6683 54.278 43.1032 55.0797 41.3375C55.3891 40.6453 56.1204 39.4869 57.3722 38.3709C57.5128 38.823 57.6113 39.2609 57.5972 39.6705C57.5831 42.3969 55.6423 43.414 54.4749 43.8378Z" fill="#CD6799"/>
</svg>
