<svg width="64" height="63" viewBox="0 0 64 63" fill="none" xmlns="http://www.w3.org/2000/svg">
<path d="M57.2427 45.3479C49.4812 55.689 32.9016 52.1984 22.2719 52.7005C22.2719 52.7005 20.3901 52.8052 18.4948 53.1172C18.4948 53.1172 19.2115 52.8114 20.1255 52.4963C27.5912 49.9146 31.1193 49.3958 35.6557 47.0656C44.1792 42.6995 52.662 33.189 54.388 23.3094C51.1437 32.8114 41.2765 40.9895 32.2921 44.3104C26.1427 46.5796 15.0219 48.788 15.0203 48.789C15.0255 48.7968 14.5771 48.5562 14.5708 48.551C7.00781 44.8714 6.78959 28.4911 20.5255 23.211C26.5479 20.8943 32.3084 22.1667 38.8188 20.6171C45.7625 18.9662 53.8047 13.7614 57.0735 6.95672C60.738 17.826 65.1401 34.8312 57.2427 45.3479V45.3479ZM57.3776 3.58858C56.4536 5.78378 55.326 7.76192 54.026 9.53125C48.3041 3.65885 40.3177 4.85131e-05 31.4901 4.85131e-05C14.1255 4.85131e-05 0 14.1271 0 31.4886C0 40.59 3.88489 48.7984 10.0786 54.5521L10.7682 55.163C9.61667 54.2239 9.43959 52.5328 10.3729 51.3802C11.312 50.2271 13.0047 50.0484 14.1568 50.9823C15.312 51.9182 15.488 53.6135 14.5527 54.7682C13.6208 55.9234 11.925 56.0979 10.7714 55.1656L11.2406 55.5812C16.7193 60.1943 23.7817 62.9807 31.4901 62.9807C48.088 62.9807 61.7172 50.064 62.8839 33.761C63.7479 25.7786 61.3901 15.6427 57.3776 3.58858Z" fill="#5FB832"/>
</svg>
