<svg viewBox="0 0 49 60" fill="none" xmlns="http://www.w3.org/2000/svg">
<path d="M45.9174 8.66782C40.5841 0.950874 29.9663 -1.31014 22.3333 3.55596L8.87765 12.2068C5.20793 14.517 2.66358 18.3017 1.92964 22.578C1.29355 26.1661 1.83178 29.8526 3.54432 33.0475C2.37001 34.817 1.58713 36.7831 1.24462 38.8475C0.46175 43.2221 1.48927 47.7441 4.03361 51.3322C9.41588 59.0492 19.9847 61.3102 27.6177 56.4441L41.0734 47.8424C44.7431 45.5322 47.2874 41.7475 48.0214 37.4712C48.6575 33.8831 48.1192 30.1966 46.4067 27.0017C47.581 25.2322 48.3639 23.2661 48.7064 21.2017C49.5382 16.778 48.5107 12.256 45.9174 8.66782Z" fill="#FF3E00"/>
<path d="M21.0122 52.0695C16.6575 53.2 12.107 51.4796 9.5627 47.7932C7.99695 45.6305 7.40979 42.9271 7.85016 40.2729C7.94802 39.8305 8.04588 39.4373 8.14374 38.9949L8.38839 38.2085L9.0734 38.7C10.6881 39.8797 12.4495 40.7644 14.3578 41.3542L14.8471 41.5017L14.7982 41.9932C14.7492 42.6813 14.945 43.4186 15.3364 44.0085C16.1193 45.139 17.4893 45.6796 18.8104 45.3356C19.104 45.2373 19.3976 45.139 19.6422 44.9915L33.0489 36.3898C33.7339 35.9475 34.1743 35.3085 34.3211 34.522C34.4679 33.7356 34.2722 32.9 33.8318 32.261C33.0489 31.1305 31.6789 30.639 30.3578 30.983C30.0642 31.0813 29.7706 31.1797 29.526 31.3271L24.3884 34.6203C23.5566 35.161 22.6269 35.5542 21.6483 35.8C17.2936 36.9305 12.7431 35.2102 10.1988 31.5237C8.68197 29.361 8.04588 26.6576 8.53518 24.0034C8.97554 21.4474 10.5413 19.1373 12.7431 17.761L26.1988 9.15931C27.0306 8.61864 27.9602 8.22542 28.9388 7.9305C33.2936 6.79999 37.844 8.52033 40.3884 12.2068C41.9541 14.3695 42.5413 17.0729 42.1009 19.7271C42.0031 20.1695 41.9052 20.5627 41.7584 21.0051L41.5138 21.7915L40.8288 21.3C39.2141 20.1203 37.4526 19.2356 35.5443 18.6458L35.055 18.4983L35.104 18.0068C35.1529 17.3186 34.9572 16.5813 34.5658 15.9915C33.7829 14.861 32.4128 14.3695 31.0917 14.7136C30.7982 14.8119 30.5046 14.9102 30.2599 15.0576L16.8532 23.6593C16.1682 24.1017 15.7278 24.7407 15.581 25.5271C15.4343 26.3136 15.63 27.1491 16.0703 27.7881C16.8532 28.9186 18.2232 29.4102 19.5443 29.0661C19.8379 28.9678 20.1315 28.8695 20.3762 28.722L25.5138 25.4288C26.3456 24.8881 27.2752 24.4949 28.2538 24.2C32.6086 23.0695 37.159 24.7898 39.7034 28.4763C41.2691 30.639 41.8563 33.3424 41.4159 35.9966C40.9755 38.5525 39.4098 40.8627 37.208 42.239L23.7523 50.8407C22.9205 51.3813 21.9908 51.7746 21.0122 52.0695Z" fill="white"/>
</svg>
